{
  "accessors": [
    {
      "bufferView": 2,
      "componentType": 5126,
      "count": 65532,
      "max": [
        1.5448907613754272,
        0.7648960947990417,
        1.055897831916809
      ],
      "min": [
        -1.8256490230560303,
        -0.740717351436615,
        -0.9073017239570618
      ],
      "type": "VEC3"
    },
    {
      "bufferView": 2,
      "byteOffset": 786384,
      "componentType": 5126,
      "count": 65532,
      "max": [
        0.9999767541885376,
        0.9999698400497437,
        0.9999915361404419
      ],
      "min": [
        -0.9998399615287781,
        -0.9999799728393555,
        -0.9999960660934448
      ],
      "type": "VEC3"
    },
    {
      "bufferView": 3,
      "componentType": 5126,
      "count": 65532,
      "max": [
        0.9999630451202393,
        0.9999994039535522,
        0.9999776482582092,
        1.0
      ],
      "min": [
        -0.9999372363090515,
        -0.9999741315841675,
        -0.9999590516090393,
        -1.0
      ],
      "type": "VEC4"
    },
    {
      "bufferView": 1,
      "componentType": 5126,
      "count": 65532,
      "max": [
        0.9999448657035828,
        0.9999052286148071
      ],
      "min": [
        7.879059558035806e-05,
        1.5437602996826172e-05
      ],
      "type": "VEC2"
    },
    {
      "bufferView": 0,
      "componentType": 5125,
      "count": 335529,
      "type": "SCALAR"
    },
    {
      "bufferView": 2,
      "byteOffset": 1572768,
      "componentType": 5126,
      "count": 39180,
      "max": [
        1.6417714357376099,
        0.7983854413032532,
        1.046400785446167
      ],
      "min": [
        -1.8321787118911743,
        -1.0884963274002075,
        -0.890798807144165
      ],
      "type": "VEC3"
    },
    {
      "bufferView": 2,
      "byteOffset": 2042928,
      "componentType": 5126,
      "count": 39180,
      "max": [
        0.9998624324798584,
        0.9999990463256836,
        0.9999980926513672
      ],
      "min": [
        -0.999975323677063,
        -0.9999435544013977,
        -0.9999972581863403
      ],
      "type": "VEC3"
    },
    {
      "bufferView": 3,
      "byteOffset": 1048512,
      "componentType": 5126,
      "count": 39180,
      "max": [
        0.9999959468841553,
        0.9999810457229614,
        0.9999874234199524,
        1.0
      ],
      "min": [
        -0.9999845027923584,
        -0.9999092221260071,
        -0.9999576807022095,
        -1.0
      ],
      "type": "VEC4"
    },
    {
      "bufferView": 1,
      "byteOffset": 524256,
      "componentType": 5126,
      "count": 39180,
      "max": [
        0.9998287558555603,
        0.9985871315002441
      ],
      "min": [
        0.0017526110168546438,
        1.4841556549072266e-05
      ],
      "type": "VEC2"
    },
    {
      "bufferView": 0,
      "byteOffset": 1342116,
      "componentType": 5125,
      "count": 183351,
      "type": "SCALAR"
    }
  ],
  "asset": {
    "extras": {
      "author": "tamilorejoseph (https://sketchfab.com/tamilorejoseph)",
      "license": "CC-BY-4.0 (http://creativecommons.org/licenses/by/4.0/)",
      "source": "https://sketchfab.com/3d-models/air-force-red-and-white-118ceb10681c45df9b45641a5c240092",
      "title": "Air force red and white"
    },
    "generator": "Sketchfab-16.12.0",
    "version": "2.0"
  },
  "bufferViews": [
    {
      "buffer": 0,
      "byteLength": 2075520,
      "name": "floatBufferViews",
      "target": 34963
    },
    {
      "buffer": 0,
      "byteLength": 837696,
      "byteOffset": 2075520,
      "byteStride": 8,
      "name": "floatBufferViews",
      "target": 34962
    },
    {
      "buffer": 0,
      "byteLength": 2513088,
      "byteOffset": 2913216,
      "byteStride": 12,
      "name": "floatBufferViews",
      "target": 34962
    },
    {
      "buffer": 0,
      "byteLength": 1675392,
      "byteOffset": 5426304,
      "byteStride": 16,
      "name": "floatBufferViews",
      "target": 34962
    }
  ],
  "buffers": [
    {
      "byteLength": 7101696,
      "uri": "scene.bin"
    }
  ],
  "extensionsUsed": [
    "KHR_materials_clearcoat",
    "KHR_materials_specular"
  ],
  "images": [
    {
      "uri": "textures/material0.001_baseColor.png"
    },
    {
      "uri": "textures/material0.001_normal.png"
    },
    {
      "uri": "textures/material0.001_clearcoat.png"
    },
    {
      "uri": "textures/material0.001_clearcoat_roughness.png"
    }
  ],
  "materials": [
    {
      "doubleSided": true,
      "extensions": {
        "KHR_materials_clearcoat": {
          "clearcoatFactor": 0.32257342671497863,
          "clearcoatRoughnessFactor": 1.0,
          "clearcoatRoughnessTexture": {
            "index": 3
          },
          "clearcoatTexture": {
            "index": 2
          }
        },
        "KHR_materials_specular": {
          "specularColorFactor": [
            1.0,
            1.0,
            1.0
          ],
          "specularFactor": 0.341
        }
      },
      "name": "material0.001",
      "normalTexture": {
        "index": 1
      },
      "pbrMetallicRoughness": {
        "baseColorTexture": {
          "index": 0
        },
        "metallicFactor": 0.0
      }
    }
  ],
  "meshes": [
    {
      "name": "Object_0",
      "primitives": [
        {
          "attributes": {
            "NORMAL": 1,
            "POSITION": 0,
            "TANGENT": 2,
            "TEXCOORD_0": 3
          },
          "indices": 4,
          "material": 0,
          "mode": 4
        }
      ]
    },
    {
      "name": "Object_1",
      "primitives": [
        {
          "attributes": {
            "NORMAL": 6,
            "POSITION": 5,
            "TANGENT": 7,
            "TEXCOORD_0": 8
          },
          "indices": 9,
          "material": 0,
          "mode": 4
        }
      ]
    }
  ],
  "nodes": [
    {
      "children": [
        1
      ],
      "matrix": [
        1.0,
        0.0,
        0.0,
        0.0,
        0.0,
        2.220446049250313e-16,
        -1.0,
        0.0,
        0.0,
        1.0,
        2.220446049250313e-16,
        0.0,
        0.0,
        0.0,
        0.0,
        1.0
      ],
      "name": "Sketchfab_model"
    },
    {
      "children": [
        2
      ],
      "name": "root"
    },
    {
      "children": [
        3
      ],
      "matrix": [
        1.0,
        0.0,
        0.0,
        0.0,
        0.0,
        2.220446049250313e-16,
        1.0,
        0.0,
        0.0,
        -1.0,
        2.220446049250313e-16,
        0.0,
        0.0,
        0.0,
        0.0,
        1.0
      ],
      "name": "GLTF_SceneRootNode"
    },
    {
      "children": [
        4,
        5
      ],
      "matrix": [
        -8.334865218446523e-09,
        -3.0189589924182454e-08,
        0.1661606281995744,
        0.0,
        -0.16524981115175638,
        -0.01737409652211389,
        -1.1445862813587614e-08,
        0.0,
        0.01737409652211567,
        -0.16524981115175402,
        -2.9152593670038467e-08,
        0.0,
        0.0,
        0.0,
        0.0,
        1.0
      ],
      "name": "Model.005_0"
    },
    {
      "mesh": 0,
      "name": "Object_4"
    },
    {
      "mesh": 1,
      "name": "Object_5"
    }
  ],
  "samplers": [
    {
      "magFilter": 9729,
      "minFilter": 9987,
      "wrapS": 10497,
      "wrapT": 10497
    }
  ],
  "scene": 0,
  "scenes": [
    {
      "name": "Sketchfab_Scene",
      "nodes": [
        0
      ]
    }
  ],
  "textures": [
    {
      "sampler": 0,
      "source": 0
    },
    {
      "sampler": 0,
      "source": 1
    },
    {
      "sampler": 0,
      "source": 2
    },
    {
      "sampler": 0,
      "source": 3
    }
  ]
}
